{
  "accessors": [
    {
      "bufferView": 2,
      "componentType": 5126,
      "count": 5076,
      "max": [4.840000152587891, 4.800000190734863, 4.800000190734863],
      "min": [-1.0, -1.0, -1.0],
      "type": "VEC3"
    },
    {
      "bufferView": 2,
      "byteOffset": 60912,
      "componentType": 5126,
      "count": 5076,
      "max": [0.9898712635040283, 0.9898712635040283, 0.9898712635040283],
      "min": [-0.9898713231086731, -0.9898713231086731, -0.9898713231086731],
      "type": "VEC3"
    },
    {
      "bufferView": 1,
      "componentType": 5126,
      "count": 5076,
      "max": [0.875, 1.0],
      "min": [0.125, 0.0],
      "type": "VEC2"
    },
    {
      "bufferView": 0,
      "componentType": 5125,
      "count": 23328,
      "type": "SCALAR"
    },
    {
      "bufferView": 2,
      "byteOffset": 121824,
      "componentType": 5126,
      "count": 468,
      "max": [4.840000152587891, 4.577649116516113, 4.577649116516113],
      "min": [-0.7776491045951843, -0.7776491045951843, -0.7776491045951843],
      "type": "VEC3"
    },
    {
      "bufferView": 2,
      "byteOffset": 127440,
      "componentType": 5126,
      "count": 468,
      "max": [0.9898712635040283, 0.9898712635040283, 0.9898712635040283],
      "min": [-0.9898713231086731, -0.9898713231086731, -0.9898713231086731],
      "type": "VEC3"
    },
    {
      "bufferView": 1,
      "byteOffset": 40608,
      "componentType": 5126,
      "count": 468,
      "max": [0.8472061157226563, 0.972206175327301],
      "min": [0.15279385447502136, 0.02779386192560196],
      "type": "VEC2"
    },
    {
      "bufferView": 0,
      "byteOffset": 93312,
      "componentType": 5125,
      "count": 702,
      "type": "SCALAR"
    },
    {
      "bufferView": 2,
      "byteOffset": 133056,
      "componentType": 5126,
      "count": 36,
      "max": [4.617649078369141, 4.800000190734863, 4.577649116516113],
      "min": [-0.7776491045951843, 4.800000190734863, -0.7776491045951843],
      "type": "VEC3"
    },
    {
      "bufferView": 2,
      "byteOffset": 133488,
      "componentType": 5126,
      "count": 36,
      "max": [0.10038970410823822, 0.9898710250854492, 0.10038842260837555],
      "min": [-0.10038970410823822, 0.9898707866668701, -0.10038840025663376],
      "type": "VEC3"
    },
    {
      "bufferView": 1,
      "byteOffset": 44352,
      "componentType": 5126,
      "count": 36,
      "max": [0.8472061157226563, 0.722206175327301],
      "min": [0.6527938842773438, 0.527793824672699],
      "type": "VEC2"
    },
    {
      "bufferView": 0,
      "byteOffset": 96120,
      "componentType": 5125,
      "count": 54,
      "type": "SCALAR"
    },
    {
      "bufferView": 2,
      "byteOffset": 133920,
      "componentType": 5126,
      "count": 36,
      "max": [4.617649078369141, 4.577649116516113, 4.800000190734863],
      "min": [-0.7776491045951843, -0.7776491045951843, 4.800000190734863],
      "type": "VEC3"
    },
    {
      "bufferView": 2,
      "byteOffset": 134352,
      "componentType": 5126,
      "count": 36,
      "max": [0.10038869082927704, 0.10038968920707703, 0.9898709654808044],
      "min": [-0.10038841515779495, -0.10038968175649643, 0.9898707866668701],
      "type": "VEC3"
    },
    {
      "bufferView": 1,
      "byteOffset": 44640,
      "componentType": 5126,
      "count": 36,
      "max": [0.597206175327301, 0.972206175327301],
      "min": [0.40279388427734375, 0.7777939438819885],
      "type": "VEC2"
    },
    {
      "bufferView": 0,
      "byteOffset": 96336,
      "componentType": 5125,
      "count": 54,
      "type": "SCALAR"
    },
    {
      "bufferView": 2,
      "byteOffset": 134784,
      "componentType": 5126,
      "count": 36,
      "max": [4.617649078369141, -1.0, 4.577649116516113],
      "min": [-0.7776491045951843, -1.0, -0.7776491045951843],
      "type": "VEC3"
    },
    {
      "bufferView": 2,
      "byteOffset": 135216,
      "componentType": 5126,
      "count": 36,
      "max": [0.10038720816373825, -0.9898711442947388, 0.10038702189922333],
      "min": [-0.10038727521896362, -0.9898712038993835, -0.10038701444864273],
      "type": "VEC3"
    },
    {
      "bufferView": 1,
      "byteOffset": 44928,
      "componentType": 5126,
      "count": 36,
      "max": [0.34720614552497864, 0.722206175327301],
      "min": [0.15279385447502136, 0.527793824672699],
      "type": "VEC2"
    },
    {
      "bufferView": 0,
      "byteOffset": 96552,
      "componentType": 5125,
      "count": 54,
      "type": "SCALAR"
    },
    {
      "bufferView": 2,
      "byteOffset": 135648,
      "componentType": 5126,
      "count": 36,
      "max": [-1.0, 4.577649116516113, 4.577649116516113],
      "min": [-1.0, -0.7776491045951843, -0.7776491045951843],
      "type": "VEC3"
    },
    {
      "bufferView": 2,
      "byteOffset": 136080,
      "componentType": 5126,
      "count": 36,
      "max": [-0.9898711442947388, 0.10038711130619049, 0.10038720816373825],
      "min": [-0.9898712635040283, -0.10038711875677109, -0.10038728266954422],
      "type": "VEC3"
    },
    {
      "bufferView": 1,
      "byteOffset": 45216,
      "componentType": 5126,
      "count": 36,
      "max": [0.597206175327301, 0.22220614552497864],
      "min": [0.40279388427734375, 0.02779386192560196],
      "type": "VEC2"
    },
    {
      "bufferView": 0,
      "byteOffset": 96768,
      "componentType": 5125,
      "count": 54,
      "type": "SCALAR"
    },
    {
      "bufferView": 2,
      "byteOffset": 136512,
      "componentType": 5126,
      "count": 36,
      "max": [4.617649078369141, 4.577649116516113, -1.0],
      "min": [-0.7776491045951843, -0.7776491045951843, -1.0],
      "type": "VEC3"
    },
    {
      "bufferView": 2,
      "byteOffset": 136944,
      "componentType": 5126,
      "count": 36,
      "max": [0.10038740932941437, 0.10038744658231735, -0.989871084690094],
      "min": [-0.10038711875677109, -0.10038744658231735, -0.9898712635040283],
      "type": "VEC3"
    },
    {
      "bufferView": 1,
      "byteOffset": 45504,
      "componentType": 5126,
      "count": 36,
      "max": [0.597206175327301, 0.47220614552497864],
      "min": [0.40279388427734375, 0.27779388427734375],
      "type": "VEC2"
    },
    {
      "bufferView": 0,
      "byteOffset": 96984,
      "componentType": 5125,
      "count": 54,
      "type": "SCALAR"
    }
  ],
  "asset": {
    "extras": {
      "author": "Gman08 (https://sketchfab.com/Gman08)",
      "license": "CC-BY-4.0 (http://creativecommons.org/licenses/by/4.0/)",
      "source": "https://sketchfab.com/3d-models/rubix-cube-8c9a5d13325b4923baac1bf038a01913",
      "title": "Rubix Cube"
    },
    "generator": "Sketchfab-15.19.0",
    "version": "2.0"
  },
  "bufferViews": [
    {
      "buffer": 0,
      "byteLength": 97200,
      "name": "floatBufferViews",
      "target": 34963
    },
    {
      "buffer": 0,
      "byteLength": 45792,
      "byteOffset": 97200,
      "byteStride": 8,
      "name": "floatBufferViews",
      "target": 34962
    },
    {
      "buffer": 0,
      "byteLength": 137376,
      "byteOffset": 142992,
      "byteStride": 12,
      "name": "floatBufferViews",
      "target": 34962
    }
  ],
  "buffers": [
    {
      "byteLength": 280368,
      "uri": "dino.bin"
    }
  ],
  "materials": [
    {
      "doubleSided": true,
      "name": "Material.001",
      "pbrMetallicRoughness": {
        "baseColorFactor": [0.0, 0.0, 0.0, 1.0],
        "metallicFactor": 0.0,
        "roughnessFactor": 0.5
      }
    },
    {
      "doubleSided": true,
      "name": "Material.002",
      "pbrMetallicRoughness": {
        "baseColorFactor": [0.8, 0.0, 0.00126377, 1.0],
        "metallicFactor": 0.0,
        "roughnessFactor": 0.5
      }
    },
    {
      "doubleSided": true,
      "name": "Material.003",
      "pbrMetallicRoughness": {
        "baseColorFactor": [0.8, 0.0833493, 0.0, 1.0],
        "metallicFactor": 0.0,
        "roughnessFactor": 0.0
      }
    },
    {
      "doubleSided": true,
      "name": "Material.006",
      "pbrMetallicRoughness": {
        "baseColorFactor": [0.0, 0.0132205, 0.8, 1.0],
        "metallicFactor": 0.0,
        "roughnessFactor": 0.0
      }
    },
    {
      "doubleSided": true,
      "name": "Material.004",
      "pbrMetallicRoughness": {
        "baseColorFactor": [0.0110177, 0.310811, 0.00631077, 1.0],
        "metallicFactor": 0.0,
        "roughnessFactor": 0.0
      }
    },
    {
      "doubleSided": true,
      "name": "Material.005",
      "pbrMetallicRoughness": {
        "baseColorFactor": [0.8, 0.354363, 0.0, 1.0],
        "metallicFactor": 0.0,
        "roughnessFactor": 0.0
      }
    },
    {
      "doubleSided": true,
      "name": "Material.007",
      "pbrMetallicRoughness": {
        "metallicFactor": 0.0,
        "roughnessFactor": 0.5
      }
    }
  ],
  "meshes": [
    {
      "name": "Object_0",
      "primitives": [
        {
          "attributes": {
            "NORMAL": 1,
            "POSITION": 0,
            "TEXCOORD_0": 2
          },
          "indices": 3,
          "material": 0,
          "mode": 4
        }
      ]
    },
    {
      "name": "Object_1",
      "primitives": [
        {
          "attributes": {
            "NORMAL": 5,
            "POSITION": 4,
            "TEXCOORD_0": 6
          },
          "indices": 7,
          "material": 1,
          "mode": 4
        }
      ]
    },
    {
      "name": "Object_2",
      "primitives": [
        {
          "attributes": {
            "NORMAL": 9,
            "POSITION": 8,
            "TEXCOORD_0": 10
          },
          "indices": 11,
          "material": 2,
          "mode": 4
        }
      ]
    },
    {
      "name": "Object_3",
      "primitives": [
        {
          "attributes": {
            "NORMAL": 13,
            "POSITION": 12,
            "TEXCOORD_0": 14
          },
          "indices": 15,
          "material": 3,
          "mode": 4
        }
      ]
    },
    {
      "name": "Object_4",
      "primitives": [
        {
          "attributes": {
            "NORMAL": 17,
            "POSITION": 16,
            "TEXCOORD_0": 18
          },
          "indices": 19,
          "material": 4,
          "mode": 4
        }
      ]
    },
    {
      "name": "Object_5",
      "primitives": [
        {
          "attributes": {
            "NORMAL": 21,
            "POSITION": 20,
            "TEXCOORD_0": 22
          },
          "indices": 23,
          "material": 5,
          "mode": 4
        }
      ]
    },
    {
      "name": "Object_6",
      "primitives": [
        {
          "attributes": {
            "NORMAL": 25,
            "POSITION": 24,
            "TEXCOORD_0": 26
          },
          "indices": 27,
          "material": 6,
          "mode": 4
        }
      ]
    }
  ],
  "nodes": [
    {
      "children": [1],
      "matrix": [
        1.0, 0.0, 0.0, 0.0, 0.0, 2.220446049250313e-16, -1.0, 0.0, 0.0, 1.0,
        2.220446049250313e-16, 0.0, 0.0, 0.0, 0.0, 1.0
      ],
      "name": "Sketchfab_model"
    },
    {
      "children": [2],
      "name": "root"
    },
    {
      "children": [3],
      "matrix": [
        1.0, 0.0, 0.0, 0.0, 0.0, 2.220446049250313e-16, 1.0, 0.0, 0.0, -1.0,
        2.220446049250313e-16, 0.0, 0.0, 0.0, 0.0, 1.0
      ],
      "name": "GLTF_SceneRootNode"
    },
    {
      "children": [4, 5, 6, 7, 8, 9, 10],
      "matrix": [
        0.06485449522733688, 0.0, 0.0, 0.0, 0.0, 0.06485449522733688, 0.0, 0.0,
        0.0, 0.0, 0.06485449522733688, 0.0, 0.0, 0.0, 0.0, 1.0
      ],
      "name": "Cube_0"
    },
    {
      "mesh": 0,
      "name": "Object_4"
    },
    {
      "mesh": 1,
      "name": "Object_5"
    },
    {
      "mesh": 2,
      "name": "Object_6"
    },
    {
      "mesh": 3,
      "name": "Object_7"
    },
    {
      "mesh": 4,
      "name": "Object_8"
    },
    {
      "mesh": 5,
      "name": "Object_9"
    },
    {
      "mesh": 6,
      "name": "Object_10"
    }
  ],
  "scene": 0,
  "scenes": [
    {
      "name": "Sketchfab_Scene",
      "nodes": [0]
    }
  ]
}
